<svg id="Logo" xmlns="http://www.w3.org/2000/svg" viewBox="0 0 405.21 362.44"><defs><style>.cls-1{fill:#f4f4f4;}.cls-2{fill:#f9f9f9;}</style></defs><path class="cls-1" d="M178.76,60.23c5.75-6.41,11.33-13,17.2-19.25l.89-.07c8.31,6.54,16.14,13.64,24.31,20.34,10-4,20.18-7.7,30.25-11.59,3.81,9.89,7.89,19.69,11.74,29.56,11,.1,22,0,33,0-.08,11.12,0,22.23,0,33.33h-35c0-10.26.05-20.54,0-30.82-9.87,3.92-19.89,7.52-29.77,11.48-3.65-9.5-7.67-18.88-11.29-28.4-6.7,7.78-13.77,15.26-20.45,23.08C191.49,81,183.23,74.24,175.21,67.2c-3.57,9-7.22,18-10.83,27q-14.62-5.43-29.16-11.09c-.11,10.33,0,20.65,0,31H100.31c.09-11.21,0-22.4,0-33.6q16,.13,32,0c4-9.88,8-19.75,11.92-29.65,10.08,3.61,20,7.57,30.05,11.34C176.3,63.71,177.58,61.34,178.76,60.23Z" transform="translate(-0.02 0)"/><path class="cls-1" d="M137.65,97.23c10,7.73,20.34,15.27,29,24.56C180.44,136.2,190,154,196.28,172.64a20.16,20.16,0,0,1,.55,5.58c0,13.94.22,27.88.2,41.82l-2.47-.69c-6-26.19-11.62-53.38-27.13-76.1-7.77-11.68-18.24-21.48-29.74-29.67C137.73,108.14,137.69,102.68,137.65,97.23Z" transform="translate(-0.02 0)"/><path class="cls-1" d="M224.83,126.42c9.45-11.34,21.44-20.26,33.22-29.17,0,5.45-.09,10.92,0,16.39-14,9.68-26.07,22.16-34.3,36.87C211.57,172,206,196.14,201.22,220c-.69-.48-2.91.09-2.5-1.4,0-14.78,0-29.57.32-44.36A134.43,134.43,0,0,1,224.83,126.42Z" transform="translate(-0.02 0)"/><path class="cls-1" d="M100,117.45c18.72,4.11,34.87,14.91,49.22,26.88,3.65-2.81,7.23-5.73,10.84-8.61,2.56,3.51,5.12,7,7.73,10.48-2.85,2.44-5.72,4.85-8.68,7.16,11.07,15.73,22.23,31.71,29.22,49.65a121.2,121.2,0,0,1,8.37,48.82c.25,21-17.35,39.08-37.8,43.39-14,3-28.84-1.21-40.18-9.39-9.1-6.47-15.75-16.59-16.42-27.7-1.48-22.51,1.77-45.62,11.61-66.19,6.45-13.74,15.4-26.25,25.28-37.87C128.34,143.89,114.92,136,100,133.26,100,128,100,122.72,100,117.45Zm49,45c-8.56,12.12-17.13,24.42-22.82,38.14a142.13,142.13,0,0,0-10.8,48.95c22.76,0,45.53.36,68.3.55-1.67-15.47-4.36-31-10.05-45.56-5.7-15.29-14.71-29.14-24.65-42.1ZM118.72,263.82a37,37,0,0,0,14.57,14.3c7,3.71,15.33,4,23,2.45,9.46-2.28,17.06-9.12,21.94-17.14C158.36,263.41,138.55,263.7,118.72,263.82Z" transform="translate(-0.02 0)"/><path class="cls-1" d="M174,127.86c8-3.59,15.78-8,24.09-10.67,8,3.19,15.69,7,23.48,10.6-2.76,3.86-5.51,7.72-8.4,11.48-5.11-2.06-10.24-4.26-15.67-5.43a157.8,157.8,0,0,0-15.06,5.39C179.53,135.51,176.83,131.64,174,127.86Z" transform="translate(-0.02 0)"/><path class="cls-2" d="M246.15,144.29c14.79-11.9,31-23,50.09-27.07-.05,5.25,0,10.51,0,15.77-15.1,2.86-28.75,10.73-39.75,21.06,10.76,12.9,20.74,26.7,27.17,42.2,8.36,19.4,11,40.83,9.6,61.74-.51,11.08-7.11,21.27-16.17,27.71-12.25,9-29,13.17-43.85,8.62-16.83-4.91-31.22-19-33.76-36.29-2.39-23.38,2.83-47.2,13.77-68,6.62-12.88,15-24.79,23.32-36.63-2.91-2.28-5.73-4.62-8.64-6.89,2.38-3.7,5-7.24,7.67-10.79C239.07,138.56,242.69,141.34,246.15,144.29Zm.28,18.16c-7.36,10.14-14.62,20.43-20,31.71-8.4,17.53-12.61,36.72-14.38,55.92,22.8-.33,45.58-.34,68.37-.72a156.54,156.54,0,0,0-6.72-37.42c-5.65-18.05-15.87-34.4-27.27-49.49Zm-29,100.95c3.87,6,8.81,11.7,15.52,14.8a34.56,34.56,0,0,0,23.32,2.24c9-2.29,16.09-9,20.65-16.63-19.85-.11-39.69-.36-59.51-.41Z" transform="translate(-0.02 0)"/><path class="cls-1" d="M172.49,299.23c7.83-8.52,15.79-17,23.58-25.5,8.37,7.81,17.36,15,25.59,22.93-7.94,8-15.31,16.59-23.19,24.71C189.16,314.78,181.26,306.47,172.49,299.23Z" transform="translate(-0.02 0)"/><path class="cls-1" d="M136.65,9.35l-.41-1.24L139,4.41c.29,1.09.58,2.35.85,3.77l.79,4.08.58,2.34c.36,1.2.68,1.87,1,2a3.21,3.21,0,0,0,1.47.24h1.08v4.44h-2.9a2.81,2.81,0,0,1-2-.68,3.57,3.57,0,0,1-.89-1.67l-.47-2.09c-.24.06-.57.43-1,1.11l-1,1.54a1.45,1.45,0,0,1-1.3.8h-.34l-1.77-.52-2.38-.46-2-.16.16-1.42.29-1.33a8.59,8.59,0,0,1,1.11-3.21,9.07,9.07,0,0,1,2.85-2.41A18.27,18.27,0,0,1,136.65,9.35Zm.34,2.16a1.75,1.75,0,0,0-.77.44l-1,1.44-1.91.54a3.85,3.85,0,0,0-1.44,1.12l2.06.63,1.18.19h2.31l.67-.19-.61-2.41Z" transform="translate(-0.02 0)"/><path class="cls-1" d="M151.93,12.59l3.17-3.74.16,1.11v3.37a3.76,3.76,0,0,1-.13,1,5.9,5.9,0,0,1-.38,1.7c0,.56.76.84,2.29.84h.73v4.44h-2.32a3.12,3.12,0,0,1-2.22-.68,3.56,3.56,0,0,1-.7-1.45,2.36,2.36,0,0,1-.73,1.5,2,2,0,0,1-1.45.63h-7.11V16.87h7.87c.15,0,.39-.3.73-.9l.31-1,.1-.8A4.5,4.5,0,0,0,151.93,12.59ZM149.11,27l-1.52,1.42c-.07.13-.21.19-.45.19h-.25l-.13-.07-.12-.06-1.81-1.71a3,3,0,0,1-.41-.59l.19-.43,2.06-1.89.41-.09a1.67,1.67,0,0,1,.64.28L149,25.34l.29.13h.16l.25-.16,1.46-1.44.22-.1h.19a.77.77,0,0,1,.61.25l1.9,1.77a.6.6,0,0,1,.22.43c0,.13-.14.29-.41.5l-1.78,1.77-.51.13a.78.78,0,0,1-.47-.13l-1.28-1.44-.41-.28A.59.59,0,0,0,149.11,27Z" transform="translate(-0.02 0)"/><path class="cls-1" d="M156.69,16.86h10a6.38,6.38,0,0,0-2.6-4.26l2.82-4.26a22.84,22.84,0,0,1,1.63,4.38,11.07,11.07,0,0,1,.25,1.11s.06.42.18,1.14c.07.5.11.87.13,1.11s0,.64,0,1.18a12.6,12.6,0,0,1-.6,4H156.69ZM166,1.76a6.91,6.91,0,0,1-1,1.51,1.19,1.19,0,0,0-.7-.74,1.61,1.61,0,0,0-1-.25l-.66.1-.54.31-.54.41a2.57,2.57,0,0,0,1,.88l1,.31h2.31a3.2,3.2,0,0,0,1-.34l-.48,1L166,6a20,20,0,0,0-3.36,1.11,15.18,15.18,0,0,0-2.41,1.23L161,6.78l.7-.49A8.3,8.3,0,0,1,163,5.76c-1.65,0-2.52-.36-2.6-1.08a4.35,4.35,0,0,1,.73-2.5A3.78,3.78,0,0,1,163.83.45a3,3,0,0,1,1.26.47C165.7,1.23,166,1.51,166,1.76Z" transform="translate(-0.02 0)"/><path class="cls-1" d="M178.12,16.86V21.3h-3.2a1.87,1.87,0,0,1-1.25-.51,2.83,2.83,0,0,1-.85-1.5,84.25,84.25,0,0,0-1-10.15L171,3.86l1-1.27,1.2-1.48L174,0l.64,5,.64,5.44.22,2.68.1,2.41c0,.66.49,1.08,1.46,1.27Z" transform="translate(-0.02 0)"/><path class="cls-1" d="M205.61,21.3H183.45a3,3,0,0,1-2.86-1.54c-.12,1-.82,1.54-2.09,1.54h-1.62V16.86H180c.67,0,1-.67,1-2a4.6,4.6,0,0,0-.19-1.33l2.6-3,.28,1,.13,1.08a7.11,7.11,0,0,1-.13,1.66l-.41,1.49V16a.66.66,0,0,0,.51.65l.57.12,1,.1a27.25,27.25,0,0,1,4.06-2.94q1.11-.64,2.43-1.29c.87-.44,1.83-.87,2.87-1.3a13.09,13.09,0,0,1,4.5-1.3c.89,0,2,.6,3.2,1.79A9.58,9.58,0,0,1,204.68,15l-.1,1-.25.9h1.3Zm-5-4.44a3,3,0,0,0-1.13-2.35,3.62,3.62,0,0,0-2.45-1,9.94,9.94,0,0,0-3,.65,14.17,14.17,0,0,0-2.83,1.36l-.6.34-.54.37-.85.62ZM196.07,5.07a.45.45,0,0,1,.23.39c0,.15-.12.33-.35.56l-1.81,1.73a.72.72,0,0,1-.51.15.69.69,0,0,1-.41-.15L191.42,6a1.36,1.36,0,0,1-.42-.56V5.34l.16-.28,2-1.73.22-.24h.32l.38.09Z" transform="translate(-0.02 0)"/><path class="cls-1" d="M208.24,12.38a7.63,7.63,0,0,1,1.17-3.55,13.34,13.34,0,0,1,3.21-3.49,2.62,2.62,0,0,1,1.49-.65,1.79,1.79,0,0,1,.85.19,4.26,4.26,0,0,1,.95.74c1.14,1.09,2.12,3.29,2.92,6.6a14.57,14.57,0,0,1,.48,3.22,24,24,0,0,1-.48,5.86H203.39V16.86H217a5.3,5.3,0,0,0-1-3.59l-1.11,1.49a4.46,4.46,0,0,1-1.17.49,8.12,8.12,0,0,1-1.84.22,3.79,3.79,0,0,1-2.56-1A2.76,2.76,0,0,1,208.24,12.38Zm.19-9.3L207,4.39a.45.45,0,0,1-.41.21.73.73,0,0,1-.44-.21l-1.71-1.57a.84.84,0,0,1-.32-.55.4.4,0,0,1,.13-.31L206.21.12l.41-.12h.26l.31.28,1.15,1.2.34.19.35-.25,1.43-1.3.37-.12a1,1,0,0,1,.63.3L213.25,2l.16.33c0,.13-.12.27-.35.44l-1.68,1.66-.51.22h-.22l-.19-.16L209.1,3.17,208.75,3Zm3.2,7.91a2.8,2.8,0,0,0,1.27.28h.48l.57-.13.82-.24a4.42,4.42,0,0,0-1.23-1.52,1.7,1.7,0,0,0-2.35-.15,1,1,0,0,0-.45.65,1.41,1.41,0,0,0,.89,1.12Z" transform="translate(-0.02 0)"/><path class="cls-1" d="M236.9,20a5.82,5.82,0,0,1-2.47,1,13.91,13.91,0,0,1-3.08.4c-2.6,0-3.9-.67-3.9-2a10.59,10.59,0,0,1,1.11-4.23,11.15,11.15,0,0,1,2-3.12h-.41l-.32-.05c-.25,0-.39-.08-.41-.25v-.28l.92-2.07.91-1.82A8.24,8.24,0,0,1,235,8.71a9.13,9.13,0,0,1,3.17,2.55A6.66,6.66,0,0,1,239.29,13a7.3,7.3,0,0,1,.35,1.67v.62a1.25,1.25,0,0,1-.19.59,15.29,15.29,0,0,1-.95,2.34A6.83,6.83,0,0,1,236.9,20Zm-5.18-7.47-.51.66-.52.77a5.59,5.59,0,0,0-.51,1.49v.41a1.35,1.35,0,0,0,.82,1.27l.7.13h1a7.78,7.78,0,0,0,1.18-.06,7.49,7.49,0,0,0,.92-.28,3,3,0,0,0,1.45-1,2.54,2.54,0,0,0-1.12-2.07A8.36,8.36,0,0,0,231.72,12.53Z" transform="translate(-0.02 0)"/><path class="cls-1" d="M245,26a12.5,12.5,0,0,0,3.45-1.76,5.81,5.81,0,0,0,2.32-3,12.17,12.17,0,0,1-2.41-.18,5.79,5.79,0,0,1-2.76-.9,2.54,2.54,0,0,1-1.3-2.28,5.21,5.21,0,0,1,.16-1.24,13,13,0,0,1,.57-1.73c1.43-4.07,3.09-6.1,5-6.11q2.37,0,4,4.35l.41,1.61.13.89v.84l-.1.31h1.4v4.44h-2.09a6.17,6.17,0,0,1-.48,2.32,12.69,12.69,0,0,1-1.36,2.51c-1.25,1.78-2.65,2.67-4.22,2.67q-1.11,0-2.28-.09c-.78-.06-1.62-.16-2.51-.3a18.31,18.31,0,0,1-4-1c-.19-.06-.29-.16-.29-.28l.35-.15A18.32,18.32,0,0,0,245,26Zm1.77-10.83c0,.78.75,1.27,2.25,1.48l2,.19a5.49,5.49,0,0,0-.68-2.26c-.46-.92-1-1.42-1.57-1.48a1.67,1.67,0,0,0-1.1.57,3.37,3.37,0,0,0-.9,1.52Z" transform="translate(-0.02 0)"/><path class="cls-1" d="M258.49,12.38a7.39,7.39,0,0,1,1.18-3.55,13.15,13.15,0,0,1,3.2-3.49,2.68,2.68,0,0,1,1.49-.65,1.79,1.79,0,0,1,.85.19,3.82,3.82,0,0,1,1,.74q1.71,1.63,2.91,6.6a14.57,14.57,0,0,1,.48,3.22,24,24,0,0,1-.48,5.86H253.64V16.86h13.6a5.23,5.23,0,0,0-1-3.59l-1.11,1.49a4.15,4.15,0,0,1-1.17.49,8.12,8.12,0,0,1-1.84.22,3.79,3.79,0,0,1-2.55-1A2.77,2.77,0,0,1,258.49,12.38Zm.19-9.3-1.39,1.31a.46.46,0,0,1-.41.21.76.76,0,0,1-.45-.21l-1.71-1.57a.84.84,0,0,1-.32-.55.44.44,0,0,1,.13-.31L256.46.12l.42-.12h.25l.32.28,1.14,1.2.35.19.35-.25,1.42-1.3.35-.12a1,1,0,0,1,.64.3L263.5,2l.16.33c0,.13-.12.27-.35.44l-1.68,1.66-.51.22h-.22l-.19-.16-1.36-1.32L259,2.9ZM261.89,11a2.73,2.73,0,0,0,1.26.28h.48l.57-.13.82-.24a4.42,4.42,0,0,0-1.23-1.52,1.69,1.69,0,0,0-2.35-.15.91.91,0,0,0-.44.65,1.39,1.39,0,0,0,.89,1.12Z" transform="translate(-0.02 0)"/><path class="cls-1" d="M1.48,361a3.92,3.92,0,0,0-1-.28A1,1,0,0,1,0,360.4l.29-.07,1-.06A15.62,15.62,0,0,0,11.6,356a19.31,19.31,0,0,0,2.34-3.53,7.77,7.77,0,0,0-1.75-2.63,7.65,7.65,0,0,0-2.24-2l1.88-4.19a10.07,10.07,0,0,1,3.26,3.66,7.85,7.85,0,0,1,1.12,3.49A15.32,15.32,0,0,1,15,357.28a10.08,10.08,0,0,1-2.62,3.7,4.51,4.51,0,0,1-2.26,1.26A26.66,26.66,0,0,1,1.48,361Z" transform="translate(-0.02 0)"/><path class="cls-1" d="M22.08,359.36a13.52,13.52,0,0,0,3.59-1.83,6.07,6.07,0,0,0,2.41-3.08,13.21,13.21,0,0,1-2.51-.2,5.71,5.71,0,0,1-2.86-.93A2.63,2.63,0,0,1,21.36,351a5.62,5.62,0,0,1,.16-1.29,13.89,13.89,0,0,1,.59-1.79c1.5-4.24,3.23-6.36,5.21-6.36,1.65,0,3,1.51,4.12,4.53l.43,1.67.13.93v.86l-.1.32h1.45v4.63H31.18a6.46,6.46,0,0,1-.5,2.41,12.82,12.82,0,0,1-1.41,2.6c-1.3,1.86-2.76,2.78-4.39,2.78q-1.15,0-2.37-.09c-.81-.06-1.68-.17-2.61-.32a18.78,18.78,0,0,1-4.12-1c-.19-.06-.29-.15-.29-.28l.36-.16A19.43,19.43,0,0,0,22.08,359.36Zm1.85-11.27c0,.81.78,1.33,2.34,1.54l2,.19a5.85,5.85,0,0,0-.71-2.34c-.47-1-1-1.48-1.63-1.54a1.79,1.79,0,0,0-1.14.59A3.64,3.64,0,0,0,23.93,348.09Z" transform="translate(-0.02 0)"/><path class="cls-1" d="M52.83,349.82h1.52v4.63h-3a1.4,1.4,0,0,1-.74-.28,1.67,1.67,0,0,1-.61-1l-.4,1a1.27,1.27,0,0,1-.76.32H43a1.2,1.2,0,0,1-.53-.29l-.36-.55-.49.55a.75.75,0,0,1-.66.29H36.25l-.21-.1-.32-.19-.42-.48a1,1,0,0,1-.37.48,2.21,2.21,0,0,1-1.15.29H31.67v-4.63h3.16a1,1,0,0,0,.63-.64,7.47,7.47,0,0,0,.3-1.15v-.84l3.07-3.79V345a10.63,10.63,0,0,1-.26,2.92,3.28,3.28,0,0,1-1.19,1.95h3.69c.33,0,.56-.25.7-.77l.06-.7v-.48l-.1-.49,3.46-3.94c0,3.23-.28,5.36-.86,6.38H48c.14,0,.27-.09.4-.28a1.42,1.42,0,0,0,.2-.83,4.08,4.08,0,0,0-.48-2.08l2.82-3.41a5.9,5.9,0,0,1,.33,1.66l.1,1.48v.71l-.1.54v.71l-.1.22C51.09,349.4,51.66,349.82,52.83,349.82ZM44.69,339.2l-1.33,1.28a1.16,1.16,0,0,1-.47.2.78.78,0,0,1-.43-.2l-1.63-1.57a.44.44,0,0,1-.37-.45.43.43,0,0,1,.17-.38l1.81-1.67a.56.56,0,0,1,.43-.16h.29l.27.16,1.15,1.21.26.26.37-.3,1.38-1.33H47a.75.75,0,0,1,.53.22l1.75,1.61.16.45-.09.23-.23.16-1.66,1.62-.19.14h-.17a1.26,1.26,0,0,1-.56-.2l-1.18-1.21A.4.4,0,0,0,45,339Zm2.21-5.39.16.29q0,.19-.36.45l-1.42,1.31L45,336a.55.55,0,0,1-.4-.16l-1.42-1.31a.43.43,0,0,1-.29-.45l.1-.3,1.51-1.34.2-.16h.59Z" transform="translate(-0.02 0)"/><path class="cls-1" d="M66.71,335.86q-2.37.48-4.84,1.25l-2.24.7a9.58,9.58,0,0,0-1.72.71,20,20,0,0,1,3.92,3.12q3.17,3,4.29,4.3c1.3,1.56,1.94,2.64,1.94,3.24l.1.74v.71l-.1.86-.16.74a5.36,5.36,0,0,1-.33,1.25l-.33,1H52.77v-4.63H64.34A5.68,5.68,0,0,0,63,347.67a13.44,13.44,0,0,0-5.08-3.91l-.36.64a8.7,8.7,0,0,1-2-1.46,7.49,7.49,0,0,1-1.86-2.59,15.26,15.26,0,0,1,1.71-5.55,41.52,41.52,0,0,1,5.64-2l2.93-.71,4-.8Z" transform="translate(-0.02 0)"/><path class="cls-1" d="M82.67,354.45a4.87,4.87,0,0,1-3.79-1.61,5.71,5.71,0,0,1-1-1.84,6.18,6.18,0,0,1-.36-2.17v-1.31l.13-.78a8.88,8.88,0,0,1,.62-2.31,3,3,0,0,1,.47-.83,1.23,1.23,0,0,1,.52-.35l.07.16-.07.54-.2,1-.09,1.12a4.42,4.42,0,0,0,1,2.57,3,3,0,0,0,2.38,1.15H96.24a5.68,5.68,0,0,0-1.35-2.18,13.44,13.44,0,0,0-5.08-3.91l-.36.64a9.43,9.43,0,0,1-2-1.5,8.56,8.56,0,0,1-1.88-2.55,14.66,14.66,0,0,1,1.75-5.55,39,39,0,0,1,5.64-2l2.93-.71,4.06-.8-1.36,4.56A47.74,47.74,0,0,0,93.75,337l-2.24.7a9.58,9.58,0,0,0-1.72.71,20.3,20.3,0,0,1,3.93,3.11c2.11,2,3.53,3.43,4.28,4.31,1.33,1.56,2,2.64,2,3.24l.1.74v.7l-.1.87-.2.93-.2.87-.39,1.16Z" transform="translate(-0.02 0)"/><path class="cls-1" d="M118.72,338.27l-.58-3.92,3.09-3.35.56,5.43.48,6.65.31,4.26a3.59,3.59,0,0,0,.47,2,1.78,1.78,0,0,0,1.22.45h.13l1.48.1v4.53h-4.25a1.34,1.34,0,0,1-.92-.32,2.23,2.23,0,0,1-.4-1.32l-.16-.87V348a11.47,11.47,0,0,0-.27-2.86,23,23,0,0,1-.89,3.15,11.78,11.78,0,0,1-4.92,6.13,25.82,25.82,0,0,1-6.15,1.73l-2.21.13h-1c-.79,0-1.2-.08-1.22-.23s.55-.43,1.65-.7A15.1,15.1,0,0,0,110,353a20.2,20.2,0,0,0,4.06-3.49l-.33-1.32-.53-1.48-1.68-3.59a17,17,0,0,0-2.47-3.37L108.2,341a9.65,9.65,0,0,1-2.93-2l-.92-.93-.83-1-.1-.64-.06-.74a7.38,7.38,0,0,1,0-1.05,2.38,2.38,0,0,1,.08-.53,3.84,3.84,0,0,1,.2-.6c.11-.38.19-.64.25-.78.12-.29.26-.57.41-.85a16.45,16.45,0,0,1,5.52,3.88,23.12,23.12,0,0,1,4,5.61,21.21,21.21,0,0,1,1.36,3.44,10.85,10.85,0,0,1,.46,3v.42a9.49,9.49,0,0,0,2.16-2.6,8.7,8.7,0,0,0,1-2,5.26,5.26,0,0,0,.29-1.62A26.26,26.26,0,0,0,118.72,338.27Z" transform="translate(-0.02 0)"/><path class="cls-1" d="M128.29,354.45H123v-4.63h7.09a15,15,0,0,1,1.84-3.93,13.42,13.42,0,0,1,3.17-3.38,2.89,2.89,0,0,1,1.2-.66,6.75,6.75,0,0,1,1.34-.34,2,2,0,0,1,.77.18,1.55,1.55,0,0,1,.71.72,9.69,9.69,0,0,1,.74,2.42,11.39,11.39,0,0,0,.78,2.55,3.79,3.79,0,0,0,1,1.93l-1.35,2-1.78,2.95a7.22,7.22,0,0,1-2-.38l-1.72-.61a29.29,29.29,0,0,1-3.42-1.57l-1,1.76A2.5,2.5,0,0,1,128.29,354.45ZM136,346l-.49-.1a2.81,2.81,0,0,0-1.26.42,5.19,5.19,0,0,0-1,1.09,9.34,9.34,0,0,0,1.87.87l1.92.57-.2-1.28c-.18-.9-.47-1.42-.84-1.61Z" transform="translate(-0.02 0)"/><path class="cls-1" d="M146.75,334a40.38,40.38,0,0,0,.33,4.92v.67l.07.84.46,4.69c.26,2.56.39,4.16.39,4.81a14.7,14.7,0,0,1-1.19,3.33L145.49,355l-2-17Z" transform="translate(-0.02 0)"/><path class="cls-1" d="M155.09,360.74l-.27-.16-.16-.2.23-.09a17.39,17.39,0,0,0,5.31-.89,13.73,13.73,0,0,0,4.41-2.16,12.22,12.22,0,0,0,3-3.21,9.93,9.93,0,0,0,.89-1.86,4.86,4.86,0,0,0,.33-1.51v-.42l-.14-.32a7,7,0,0,1-.79,1.8,4,4,0,0,1-1.35,1.36,4.43,4.43,0,0,1-2,.37,3,3,0,0,1-2.21-1.06,6.13,6.13,0,0,1-.92-1.66l-.24-1.09-.09-1.28a10.14,10.14,0,0,1,.82-2.75c1.3-3.1,3-4.64,5.08-4.64,1.25,0,2.27.83,3.06,2.5a12.23,12.23,0,0,1,.76,2.43,14,14,0,0,1,.26,2.82,22,22,0,0,1-.16,2.69c-.11.86-.2,1.45-.28,1.78s-.21.85-.41,1.56a16.08,16.08,0,0,1-2.37,5.25q-1.74,2.44-3.87,2.44h-.89l-1-.13-1-.13a3.69,3.69,0,0,1-.87-.1,6.38,6.38,0,0,0-.72-.19A22.36,22.36,0,0,1,155.09,360.74Zm12.42-12.29a3.3,3.3,0,0,0-.56-1.85,2.42,2.42,0,0,0-1.28-1.24l-.5-.13c-.39,0-.78.28-1.15.83a4.68,4.68,0,0,0-.63,1.69v.13c0,.27.26.55.76.82l.66.26.66.09,1-.16Z" transform="translate(-0.02 0)"/><path class="cls-1" d="M186,343.08l2.61-4.21a8.22,8.22,0,0,1,2.47,2.51l.89,1.51.76,1.57.4,1.19.36,1.28a21.56,21.56,0,0,1,.2,3.31,12.25,12.25,0,0,1-.53,4.21H182q-.47,0-.93-1.83c-.11-.58-.18-1-.23-1.22a8.88,8.88,0,0,1-.19-1.54v-.68a1.17,1.17,0,0,1,.2-.7H181l.26.42.3.51.26.17a1.75,1.75,0,0,0,1.09.28h8.14a7.2,7.2,0,0,0-1.78-4.27A6.75,6.75,0,0,0,186,343.08Z" transform="translate(-0.02 0)"/><path class="cls-1" d="M203.54,349.82v4.63h-3.33a2,2,0,0,1-1.3-.53,3,3,0,0,1-.87-1.56A84.91,84.91,0,0,0,197,341.8l-.84-5.49,1-1.32,1.25-1.54.79-1.12.66,5.23.67,5.65.23,2.79.1,2.51c0,.68.5,1.12,1.51,1.31Z" transform="translate(-0.02 0)"/><path class="cls-1" d="M211.29,345.39l3.29-3.88.17,1.16v3.49a4.22,4.22,0,0,1-.13,1,6.32,6.32,0,0,1-.4,1.77c0,.58.79.86,2.38.86h.75v4.63H215a3.23,3.23,0,0,1-2.31-.71,3.6,3.6,0,0,1-.73-1.51,2.5,2.5,0,0,1-.75,1.56,2.07,2.07,0,0,1-1.52.66h-7.38v-4.63h8.17c.15,0,.41-.31.76-.93l.33-1.06.1-.83A4.74,4.74,0,0,0,211.29,345.39Zm1.29-8.69a.77.77,0,0,1,.22.45l-.13.21a1.81,1.81,0,0,1-.29.33l-1.9,1.8-.17.1H210a1.06,1.06,0,0,1-.46-.13l-1.87-1.79a.59.59,0,0,1-.39-.54V337l.1-.32,2-1.78.33-.22h.72Z" transform="translate(-0.02 0)"/><path class="cls-1" d="M216.3,354.45v-4.63h5.07a3.46,3.46,0,0,0,.6-2.18,1,1,0,0,0-.07-.51l3.1-3.47a6.62,6.62,0,0,1,.23,1.16,11,11,0,0,1-.41,2.74,5.43,5.43,0,0,1-.74,1.91h.1l.79.32,1.78.1.49-.1h1.49l.42-1,.14-1.12v-.2a.63.63,0,0,0-.07-.38l1.45-1.48,1.81-1.64v.74l-.13.84a2.54,2.54,0,0,1-.13.77l-.23.86a7.63,7.63,0,0,1-1,2.6h4.18l.07-.32a5.81,5.81,0,0,0-.79-2.43l1.75-1.92,1.71-1.85.07,2v3.12l-.6,4.43-.43,1.64H229.4c-.13,0-.27-.11-.42-.32l-.14-.39a.85.85,0,0,1-.26.48l-.49.23h-5.77l-.2-.1-.26-.22a2.29,2.29,0,0,1-.1-.78v-.19L221,354a2.08,2.08,0,0,1-.79.45Z" transform="translate(-0.02 0)"/><path class="cls-1" d="M242.83,334a40.38,40.38,0,0,0,.33,4.92v.67l.08.84.46,4.69c.26,2.56.39,4.16.39,4.81a14.7,14.7,0,0,1-1.19,3.33L241.58,355l-2-17Z" transform="translate(-0.02 0)"/><path class="cls-1" d="M257.9,354.45a4.9,4.9,0,0,1-3.83-1.61A5.84,5.84,0,0,1,253,351a6.15,6.15,0,0,1-.37-2.17v-1.31l.13-.78a8.79,8.79,0,0,1,.63-2.31,3.2,3.2,0,0,1,.46-.83,1.33,1.33,0,0,1,.53-.35l.07.16-.07.54-.2,1-.1,1.12a4.26,4.26,0,0,0,1,2.57,3,3,0,0,0,2.38,1.15H273.3c.4,0,.73-.4,1-1.22l.17-.86.06-.84a5.94,5.94,0,0,0-.23-1.51l3.26-3.88a13.19,13.19,0,0,1,.2,2.66,17.19,17.19,0,0,1-.59,4.79c0,.17.24.38.72.64l.86.16a4.49,4.49,0,0,0,.73.06h.23v4.63h-1.88a3.37,3.37,0,0,1-2.37-.71,3.8,3.8,0,0,1-.63-1.51,4.16,4.16,0,0,1-.89,1.57,2.13,2.13,0,0,1-1.38.65Zm6.82-14.52-1.55,1.49a1,1,0,0,1-.56.19,1.56,1.56,0,0,1-.56-.2l-1.91-1.86c-.29-.21-.43-.41-.43-.61a.58.58,0,0,1,.17-.41l2.27-2.12.16-.07h.3a.73.73,0,0,1,.63.36l1.41,1.34.27.26h.1l.16-.09.23-.2,1.65-1.54.46-.16a1.51,1.51,0,0,1,.66.38l2.08,1.85.13.25V339a.68.68,0,0,1-.33.57l-2,1.86a.7.7,0,0,1-.49.2h-.24l-.26-.19L265.51,340a.76.76,0,0,0-.36-.25Z" transform="translate(-0.02 0)"/><path class="cls-1" d="M287.3,345.39l3.3-3.89.16,1.16v3.5a4.22,4.22,0,0,1-.13,1,6.69,6.69,0,0,1-.4,1.77c0,.58.8.86,2.38.86h.76v4.63H291a3.23,3.23,0,0,1-2.31-.71,3.71,3.71,0,0,1-.72-1.51,2.54,2.54,0,0,1-.76,1.56,2.07,2.07,0,0,1-1.52.66h-7.38v-4.63h8.17c.16,0,.41-.31.76-.93l.33-1.06.1-.83A4.51,4.51,0,0,0,287.3,345.39ZM286.64,359l.23.48-.1.16a2.12,2.12,0,0,1-.29.38l-1.91,1.75-.5.12h-.3l-.16-.09L281.7,360a.69.69,0,0,1-.33-.55v-.19l.16-.29,2-1.76a1,1,0,0,1,.69-.29l.37.1Z" transform="translate(-0.02 0)"/><path class="cls-1" d="M292.21,349.82H304a8.72,8.72,0,0,0-1.09-2.79,4.86,4.86,0,0,0-1.61-1.64l2.86-4.42a16.47,16.47,0,0,1,1.79,4.59,24.82,24.82,0,0,1,.46,4.71,12.59,12.59,0,0,1-.5,4.18H292.21ZM298.32,339,297,340.2a.65.65,0,0,1-.49.19h-.2l-.16-.16-1.68-1.55c-.27-.11-.4-.26-.4-.47l.2-.33,1.88-1.76.16-.1h.2a.85.85,0,0,1,.56.29l1.15,1.13.3.16,2.14,5.74.09-.14-1.9-5.83,1.35-1.25a.54.54,0,0,1,.39-.1h.36l.2.17,1.72,1.68.09.17.07.23a.45.45,0,0,1-.33.42L301,340.26a.69.69,0,0,1-.46.13.56.56,0,0,1-.39-.13L298.91,339l-.36-.26Zm2.23-5.4.1.37-.3.38-1.45,1.32-.36.13-.36-.13-1.42-1.32a1,1,0,0,1-.3-.38l.1-.35,1.55-1.38a.8.8,0,0,1,.53-.23h.26Z" transform="translate(-0.02 0)"/><path class="cls-1" d="M333.75,352.23a3.69,3.69,0,0,1-.17,1.19,10.62,10.62,0,0,1-.49,1.44,7.72,7.72,0,0,1-1.32,2.38q-6,3.5-9.69,3.5a7,7,0,0,1-4.95-1.83c-1.43-1.33-2.15-3.33-2.14-6a13.72,13.72,0,0,1,1.84-6.91,1.75,1.75,0,0,1,.56-.65A2,2,0,0,1,318,345a1.5,1.5,0,0,1,.27.29l-.07.23-.1.32c-.11.25-.23.55-.36.89a11.58,11.58,0,0,0-.43,1.53,9.82,9.82,0,0,0-.23,2.23v1.06a2.87,2.87,0,0,0,.13.71q1,3.47,5.64,3.46a21.53,21.53,0,0,0,8.54-2.24l.1-.36v-.35a10.15,10.15,0,0,0-2.87-6.93l2.51-3.92a13.82,13.82,0,0,1,1.18,2,16.92,16.92,0,0,1,1.12,2.92l.33,1.77.13,2Zm-7.39-10.85.17.45c0,.11-.15.29-.43.55l-1.87,1.79-.42.13a1,1,0,0,1-.53-.13l-1.87-1.79a1,1,0,0,1-.39-.48v-.23l.2-.29,1.95-1.76c.06-.2.29-.29.67-.29l.39.09Z" transform="translate(-0.02 0)"/><path class="cls-1" d="M343.67,349.82v4.63h-3.33a2,2,0,0,1-1.3-.53,3,3,0,0,1-.88-1.56,87,87,0,0,0-1.07-10.56l-.84-5.49,1-1.32,1.25-1.54.79-1.12.67,5.23.66,5.65.21,2.79.09,2.51c0,.68.51,1.12,1.52,1.31Z" transform="translate(-0.02 0)"/><path class="cls-1" d="M347.06,354.45h-5.3v-4.63h7.07a14.72,14.72,0,0,1,1.85-3.93,13.38,13.38,0,0,1,3.16-3.38,3.11,3.11,0,0,1,1.21-.66,6.83,6.83,0,0,1,1.33-.34,2.11,2.11,0,0,1,.78.18,1.53,1.53,0,0,1,.7.72,9.31,9.31,0,0,1,.75,2.42,10.87,10.87,0,0,0,.77,2.55,3.73,3.73,0,0,0,1.06,1.93l-1.36,2-1.78,2.95a7.22,7.22,0,0,1-2-.38l-1.71-.61a31.18,31.18,0,0,1-3.43-1.57l-1,1.76A2.51,2.51,0,0,1,347.06,354.45Zm7.77-8.45-.5-.1a2.82,2.82,0,0,0-1.25.42,5.45,5.45,0,0,0-1,1.09,9.17,9.17,0,0,0,1.88.87l1.91.57-.2-1.28A2.61,2.61,0,0,0,354.83,346Z" transform="translate(-0.02 0)"/><path class="cls-1" d="M360.58,361a3.92,3.92,0,0,0-1-.28,1.16,1.16,0,0,1-.46-.32l.3-.07,1-.06a13.87,13.87,0,0,0,3.39-.48,14.12,14.12,0,0,0,6.93-3.82,19.31,19.31,0,0,0,2.34-3.53,7.67,7.67,0,0,0-1.75-2.64,7.94,7.94,0,0,0-2.24-2l1.84-4.14a10.07,10.07,0,0,1,3.27,3.65,8,8,0,0,1,1.12,3.5,15.15,15.15,0,0,1-1.25,6.47,10,10,0,0,1-2.62,3.7,4.55,4.55,0,0,1-2.26,1.26A26.72,26.72,0,0,1,360.58,361Zm11.47-24.14a.62.62,0,0,1,.2.42c0,.19-.14.38-.4.58l-1.93,1.83-.43.12a.76.76,0,0,1-.46-.12l-1.92-1.83a.57.57,0,0,1-.37-.52.93.93,0,0,1,.17-.48l1.95-1.8a.74.74,0,0,1,.63-.28.67.67,0,0,1,.43.12Z" transform="translate(-0.02 0)"/><path class="cls-1" d="M384.83,349.82v4.63H381.5a2,2,0,0,1-1.3-.53,3,3,0,0,1-.87-1.56,84.91,84.91,0,0,0-1.08-10.56l-.84-5.49,1-1.32,1.25-1.54.79-1.12.66,5.23.67,5.65L382,346l.1,2.51c0,.68.5,1.12,1.51,1.31Z" transform="translate(-0.02 0)"/><path class="cls-1" d="M383.55,354.45v-4.63h5.08a3.51,3.51,0,0,0,.59-2.18,1.11,1.11,0,0,0-.06-.51l3.09-3.47a6.62,6.62,0,0,1,.23,1.16,10.56,10.56,0,0,1-.41,2.74,5.24,5.24,0,0,1-.74,1.91h.1l.79.32,1.78.1.5-.1H396l.43-1,.13-1.12v-.2c0-.21,0-.34-.07-.38l1.45-1.48,1.82-1.64v.74l-.14.84a2.54,2.54,0,0,1-.13.77l-.23.86a7.63,7.63,0,0,1-1,2.6h4.19l.06-.32a5.81,5.81,0,0,0-.79-2.43l1.75-1.92,1.71-1.85.07,2v3.12l-.59,4.43-.43,1.64h-7.55c-.13,0-.28-.11-.43-.32l-.13-.39a.93.93,0,0,1-.27.48l-.49.23h-5.77l-.2-.1-.26-.22a2.29,2.29,0,0,1-.1-.78v-.19l-.76.84a2.08,2.08,0,0,1-.79.45Z" transform="translate(-0.02 0)"/></svg>